{"title":"G.I. Joe Rise Of The Cobra 2009 BRRip H264 AAC-MS","uid":5642962,"size":1880452057,"categoryP":"video","categoryS":"hd___movies","magnet":"?xt=urn:btih:565ce41e451fc414fd85b3ff9d865f3aa0f0229a&amp;dn=G.I.+Joe+Rise+Of+The+Cobra+2009+BRRip+H264+AAC-MS&amp;tr=udp%3A%2F%2Ftracker.openbittorrent.com%3A80&amp;tr=udp%3A%2F%2Fopen.demonii.com%3A1337&amp;tr=udp%3A%2F%2Ftracker.coppersurfer.tk%3A6969&amp;tr=udp%3A%2F%2Fexodus.desync.com%3A6969","seeders":1,"leechers":0,"uploader":"rev-x","files":6,"time":1277185907,"description":"G.I. Joe Rise Of The Cobra 2009 BRRip H264 AAC-MS.mp4\nFormat : MPEG-4\nFormat profile : Base Media\nCodec ID : isom\nFile size : 1.75 GiB\nDuration : 1h 57mn\nOverall bit rate : 2 124 Kbps\n\n\n\n\nVideo #1\nFormat : AVC\nFormat/Info : Advanced Video Codec\nFormat profile : &lt;a class=&quot;__cf_email__&quot; href=&quot;/cdn-cgi/l/email-protection&quot; data-cfemail=&quot;81c9e8e6e9c1cdb5afb0&quot;&gt;[email&amp;#160;protected]&lt;/a&gt;&lt;script cf-hash='f9e31' type=&quot;text/javascript&quot;&gt;\n/* &lt;![CDATA[ */!function(){try{var t=&quot;currentScript&quot;in document?document.currentScript:function(){for(var t=document.getElementsByTagName(&quot;script&quot;),e=t.length;e--;)if(t[e].getAttribute(&quot;cf-hash&quot;))return t[e]}();if(t&amp;&amp;t.previousSibling){var e,r,n,i,c=t.previousSibling,a=c.getAttribute(&quot;data-cfemail&quot;);if(a){for(e=&quot;&quot;,r=parseInt(a.substr(0,2),16),n=2;a.length-n;n+=2)i=parseInt(a.substr(n,2),16)^r,e+=String.fromCharCode(i);e=document.createTextNode(e),c.parentNode.replaceChild(e,c)}}}catch(u){}}();/* ]]&gt; */&lt;/script&gt;\nFormat settings, CABAC : Yes\nFormat settings, ReFrames : 3 frames\nCodec ID : avc1\nCodec ID/Info : Advanced Video Coding\nDuration : 1h 57mn\nBit rate mode : Variable\nBit rate : 1 800 Kbps\nMaximum bit rate : 9 700 Kbps\nWidth : 1 280 pixels\nHeight : 544 pixels\nDisplay aspect ratio : 2.35\nFrame rate mode : Constant\nFrame rate : 23.976 fps\nResolution : 24 bits\nColorimetry : 4:2:0\nScan type : Progressive\nBits/(Pixel*Frame) : 0.108\nStream size : 1.48 GiB (85%)\nWriting library : x264 core 80 r1376M 3feaec2\n\n\nAudio #2\nFormat : AAC\nFormat/Info : Advanced Audio Codec\nFormat version : Version 4\nFormat profile : LC\nFormat settings, SBR : No\nCodec ID : 40\nDuration : 1h 57mn\nBit rate mode : Variable\nBit rate : 324 Kbps\nMaximum bit rate : 447 Kbps\nChannel(s) : 6 channels\nChannel positions : Front: L C R, Rear: L R, LFE\nSampling rate : 48.0 KHz\nResolution : 16 bits\nStream size : 274 MiB (15%)\nLanguage: English","torrent":{"xt":"urn:btih:565ce41e451fc414fd85b3ff9d865f3aa0f0229a","amp;dn":"G.I.+Joe+Rise+Of+The+Cobra+2009+BRRip+H264+AAC-MS","amp;tr":["udp%3A%2F%2Ftracker.openbittorrent.com%3A80","udp%3A%2F%2Fopen.demonii.com%3A1337","udp%3A%2F%2Ftracker.coppersurfer.tk%3A6969","udp%3A%2F%2Fexodus.desync.com%3A6969"],"infoHash":"565ce41e451fc414fd85b3ff9d865f3aa0f0229a","infoHashBuffer":{"type":"Buffer","data":[86,92,228,30,69,31,196,20,253,133,179,255,157,134,95,58,160,240,34,154]},"announce":[],"urlList":[]}}